<svg width="238" height="69" viewBox="0 0 238 69" fill="none" xmlns="http://www.w3.org/2000/svg">
<g clip-path="url(#clip0_305_2940)">
<path d="M65.8408 18.2676V36.4953C65.8408 48.139 59.464 53.4756 50.5922 53.4756C41.7204 53.4756 35.3457 48.139 35.3457 36.4953V18.2676H44.3549V36.4953C44.3549 42.0391 46.1563 44.6736 50.5922 44.6736C55.0281 44.6736 56.8295 42.0391 56.8295 36.4953V18.2676H65.8387H65.8408Z" fill="white"/>
<path d="M99.4558 52.9209H90.4467V34.6932C90.4467 29.1494 88.6453 26.5149 84.2094 26.5149C79.7735 26.5149 77.9721 29.1494 77.9721 34.6932V52.9209H68.9629V34.6932C68.9629 23.0495 75.3398 17.7129 84.2094 17.7129C93.079 17.7129 99.458 23.0495 99.458 34.6932V52.9209H99.4558Z" fill="white"/>
<path d="M168.828 18.2676H178.254L186.155 41.0686L194.126 18.2676H203.552L190.661 52.9216H181.652L168.83 18.2676H168.828Z" fill="white"/>
<path d="M201.473 35.5958C201.473 25.6859 209.511 17.7148 219.354 17.7148C229.196 17.7148 237.165 25.6859 237.165 35.5958V52.9228H228.156V49.2502C227.115 51.538 223.303 53.479 219.354 53.479C209.511 53.479 201.473 45.5079 201.473 35.598V35.5958ZM228.225 35.5958C228.225 30.4664 224.553 26.5168 219.423 26.5168C214.294 26.5168 210.482 30.4664 210.482 35.5958C210.482 40.7252 214.294 44.6748 219.423 44.6748C224.553 44.6748 228.225 40.7252 228.225 35.5958Z" fill="white"/>
<path d="M24.2578 52.5768C24.2578 52.8909 24.2426 53.1896 24.2142 53.4775H33.2452C33.2605 53.1809 33.2692 52.88 33.2692 52.5768C33.2692 33.7952 9.01136 42.1806 9.01136 31.924C9.01136 28.8053 11.3667 27.0715 15.6652 27.0715C19.9637 27.0715 22.319 28.7355 22.319 33.516H31.3282C31.3282 23.9507 25.2283 18.2695 15.6652 18.2695C6.10208 18.2695 0 22.773 0 31.6448C0 49.1092 24.2578 42.1806 24.2578 52.5746V52.5768Z" fill="white"/>
<path d="M4.40054 53.4769C6.82874 53.4769 8.79718 51.5084 8.79718 49.0802C8.79718 46.652 6.82874 44.6836 4.40054 44.6836C1.97235 44.6836 0.00390625 46.652 0.00390625 49.0802C0.00390625 51.5084 1.97235 53.4769 4.40054 53.4769Z" fill="url(#paint0_linear_305_2940)"/>
<path d="M117.115 22.9055H129.692C126.97 19.3878 122.785 17.7129 117.817 17.7129C108.945 17.7129 102.57 23.0495 102.57 34.6932V52.9209H111.579V34.6932C111.579 29.4525 113.191 26.8137 117.112 26.5411V22.9055H117.115Z" fill="white"/>
<path d="M133.064 34.5527V34.8755H124.057V52.92H133.066V34.6923C133.066 34.6443 133.064 34.5985 133.064 34.5527Z" fill="white"/>
<path d="M153.027 17.7129C143.118 17.7129 135.146 25.684 135.146 35.5939C135.146 45.5037 143.118 53.4748 153.027 53.4748C162.937 53.4748 170.908 45.5037 170.908 35.5939C170.908 25.684 162.937 17.7129 153.027 17.7129ZM153.097 44.675C147.968 44.675 144.156 40.7254 144.156 35.596C144.156 30.4666 147.968 26.5171 153.097 26.5171C158.227 26.5171 161.899 30.4666 161.899 35.596C161.899 40.7254 158.227 44.675 153.097 44.675Z" fill="url(#paint1_linear_305_2940)"/>
<path d="M156.279 0H149.773V13.0743H156.279V0Z" fill="url(#paint2_linear_305_2940)"/>
<path d="M173.557 3.45037L164.312 12.6953L168.913 17.2954L178.158 8.05048L173.557 3.45037Z" fill="url(#paint3_linear_305_2940)"/>
<path d="M132.495 3.44872L127.895 8.04883L137.139 17.2938L141.74 12.6937L132.495 3.44872Z" fill="url(#paint4_linear_305_2940)"/>
<path d="M133.065 25.6387H119.99V32.1442H133.065V25.6387Z" fill="url(#paint5_linear_305_2940)"/>
<path d="M0.828125 68.1965V59.8809H3.42554L5.74599 65.4661H5.78743L8.09697 59.8809H10.6835V68.1965H8.75341V62.6724H8.71197L6.52456 68.1965H4.86056L2.67314 62.6724H2.63171V68.1965H0.828125Z" fill="white"/>
<path d="M26.3719 68.1965H20.2109V59.8809H26.3719V61.5645H22.141V63.0628H26.0012V64.7049H22.141V66.5129H26.3719V68.1965Z" fill="white"/>
<path d="M35.5918 68.1965V59.8809H38.9591C39.8619 59.8809 40.6427 60.0488 41.2991 60.3846C41.9556 60.7205 42.4615 61.2003 42.8192 61.8218C43.1747 62.4456 43.3535 63.1849 43.3535 64.0398C43.3535 64.8947 43.1747 65.6253 42.8148 66.2468C42.455 66.8706 41.9469 67.3503 41.2904 67.6884C40.634 68.0264 39.8554 68.1965 38.9591 68.1965H35.5918ZM37.5219 66.5543H38.9591C39.7725 66.5543 40.3875 66.321 40.8019 65.8564C41.2163 65.3919 41.4234 64.7856 41.4234 64.0398C41.4234 63.2939 41.2163 62.6789 40.8019 62.2166C40.3875 61.7542 39.7725 61.5231 38.9591 61.5231H37.5219V66.5543Z" fill="white"/>
<path d="M52.5723 68.1965V59.8809H54.5023V68.1965H52.5723Z" fill="white"/>
<path d="M67.9623 68.3592C67.1074 68.3592 66.3615 68.1825 65.7247 67.8314C65.0879 67.4803 64.595 66.9787 64.2461 66.3331C63.8971 65.6876 63.7227 64.9287 63.7227 64.0585C63.7227 63.1883 63.8971 62.4228 64.2461 61.7795C64.595 61.1361 65.0879 60.6389 65.7247 60.2856C66.3615 59.9323 67.1074 59.7578 67.9623 59.7578C68.6601 59.7578 69.2795 59.8799 69.8204 60.122C70.3612 60.3641 70.8018 60.713 71.1442 61.1645C71.4866 61.6159 71.7025 62.1568 71.7919 62.787H69.7789C69.7113 62.3705 69.5129 62.0455 69.1879 61.8122C68.863 61.5788 68.453 61.4632 67.9601 61.4632C67.2491 61.4632 66.6843 61.6922 66.2721 62.1502C65.8577 62.6082 65.6505 63.245 65.6505 64.0607C65.6505 64.8763 65.8577 65.5109 66.2721 65.9711C66.6865 66.4291 67.2491 66.6581 67.9601 66.6581C68.453 66.6581 68.8608 66.5425 69.1879 66.3091C69.5129 66.0758 69.7092 65.7508 69.7789 65.3343H71.7919C71.7025 65.958 71.4866 66.4967 71.1442 66.9503C70.8018 67.4061 70.3612 67.7551 69.8204 67.9971C69.2795 68.2392 68.6601 68.3613 67.9623 68.3613V68.3592Z" fill="white"/>
<path d="M79.6328 68.1965L83.1331 59.8809H85.085L88.5438 68.1965H86.5614L85.772 66.3079H82.3524L81.552 68.1965H79.6328ZM82.9608 64.7049H85.2595L84.1407 61.9527H84.0883L82.9586 64.7049H82.9608Z" fill="white"/>
<path d="M97.3145 68.1965V59.8809H99.2445V66.5129H103.434V68.1965H97.3145Z" fill="white"/>
<path d="M126.532 68.3182C125.395 68.3182 124.49 68.0696 123.816 67.5745C123.143 67.0773 122.774 66.3859 122.713 65.4961H124.684C124.761 65.928 124.957 66.2485 125.28 66.4601C125.603 66.6716 126.043 66.7785 126.604 66.7785C127.11 66.7785 127.489 66.7022 127.738 66.5473C127.986 66.3925 128.113 66.1613 128.113 65.8538C128.113 65.6139 128.036 65.4285 127.882 65.2933C127.727 65.1603 127.472 65.0556 127.116 64.9793L125.36 64.6085C124.567 64.4384 123.978 64.1615 123.594 63.7776C123.21 63.3938 123.018 62.8922 123.018 62.2685C123.018 61.4812 123.317 60.8662 123.917 60.4213C124.516 59.9764 125.332 59.7539 126.366 59.7539C127.4 59.7539 128.246 59.9873 128.88 60.4518C129.517 60.9163 129.868 61.5684 129.938 62.4015H127.967C127.775 61.6207 127.203 61.2304 126.252 61.2304C125.834 61.2304 125.507 61.3045 125.267 61.4506C125.027 61.5967 124.907 61.8083 124.907 62.0809C124.907 62.4909 125.201 62.7591 125.79 62.8813L127.629 63.2608C128.457 63.433 129.059 63.7122 129.437 64.1026C129.814 64.4929 130.001 65.0229 130.001 65.6946C130.001 66.5233 129.703 67.1667 129.103 67.6247C128.503 68.0827 127.646 68.3117 126.532 68.3117V68.3182Z" fill="white"/>
<path d="M142.704 68.3189C141.958 68.3189 141.301 68.2033 140.739 67.9743C140.174 67.7453 139.736 67.3898 139.424 66.9122C139.112 66.4324 138.957 65.8131 138.957 65.0541V59.8789H140.929V64.7444C140.929 65.2918 141.072 65.7236 141.36 66.0377C141.648 66.3517 142.113 66.5109 142.756 66.5109C143.399 66.5109 143.89 66.343 144.167 66.0072C144.444 65.6713 144.584 65.2548 144.584 64.7553V59.8789H146.514V65.0737C146.514 66.162 146.176 66.9755 145.497 67.512C144.819 68.0485 143.888 68.3189 142.706 68.3189H142.704Z" fill="white"/>
<path d="M155.957 68.1965V59.8809H159.992C160.929 59.8809 161.662 60.1186 162.188 60.594C162.713 61.0694 162.977 61.7259 162.977 62.559C162.977 63.3921 162.713 64.0398 162.188 64.5196C161.66 64.9994 160.929 65.2393 159.992 65.2393H157.887V68.1965H155.957ZM157.887 63.5556H159.87C160.253 63.5556 160.546 63.4684 160.748 63.2939C160.949 63.1195 161.052 62.8752 161.052 62.559C161.052 62.2427 160.951 61.9919 160.748 61.8197C160.546 61.6495 160.253 61.5623 159.87 61.5623H157.887V63.5534V63.5556Z" fill="white"/>
<path d="M171.953 68.1965V59.8809H175.988C176.926 59.8809 177.658 60.1186 178.184 60.594C178.709 61.0694 178.973 61.7259 178.973 62.559C178.973 63.3921 178.709 64.0398 178.184 64.5196C177.656 64.9994 176.926 65.2393 175.988 65.2393H173.883V68.1965H171.953ZM173.883 63.5556H175.866C176.249 63.5556 176.542 63.4684 176.744 63.2939C176.945 63.1195 177.048 62.8752 177.048 62.559C177.048 62.2427 176.947 61.9919 176.744 61.8197C176.542 61.6495 176.249 61.5623 175.866 61.5623H173.883V63.5534V63.5556Z" fill="white"/>
<path d="M187.947 68.1965V59.8809H189.877V66.5129H194.067V68.1965H187.947Z" fill="white"/>
<path d="M203.08 68.1965V59.8809H205.01V68.1965H203.08Z" fill="white"/>
<path d="M220.761 68.1965H214.6V59.8809H220.761V61.5645H216.53V63.0628H220.39V64.7049H216.53V66.5129H220.761V68.1965Z" fill="white"/>
<path d="M233.366 68.3182C232.229 68.3182 231.324 68.0696 230.65 67.5745C229.976 67.0773 229.608 66.3859 229.547 65.4961H231.518C231.595 65.928 231.791 66.2485 232.114 66.4601C232.437 66.6716 232.877 66.7785 233.438 66.7785C233.944 66.7785 234.323 66.7022 234.572 66.5473C234.82 66.3925 234.947 66.1613 234.947 65.8538C234.947 65.6139 234.87 65.4285 234.716 65.2933C234.561 65.1603 234.306 65.0556 233.95 64.9793L232.194 64.6085C231.401 64.4384 230.812 64.1615 230.428 63.7776C230.044 63.3938 229.852 62.8922 229.852 62.2685C229.852 61.4812 230.151 60.8662 230.751 60.4213C231.35 59.9764 232.166 59.7539 233.2 59.7539C234.234 59.7539 235.08 59.9873 235.714 60.4518C236.351 60.9163 236.702 61.5684 236.772 62.4015H234.801C234.609 61.6207 234.037 61.2304 233.086 61.2304C232.668 61.2304 232.341 61.3045 232.101 61.4506C231.861 61.5967 231.741 61.8083 231.741 62.0809C231.741 62.4909 232.035 62.7591 232.624 62.8813L234.463 63.2608C235.291 63.433 235.893 63.7122 236.27 64.1026C236.648 64.4929 236.835 65.0229 236.835 65.6946C236.835 66.5233 236.537 67.1667 235.937 67.6247C235.337 68.0827 234.48 68.3117 233.366 68.3117V68.3182Z" fill="white"/>
</g>
<defs>
<linearGradient id="paint0_linear_305_2940" x1="0.00390625" y1="49.0802" x2="8.79718" y2="49.0802" gradientUnits="userSpaceOnUse">
<stop stop-color="#E5550F"/>
<stop offset="1" stop-color="#EDD76A"/>
</linearGradient>
<linearGradient id="paint1_linear_305_2940" x1="140.37" y1="48.2516" x2="165.683" y2="22.9383" gradientUnits="userSpaceOnUse">
<stop stop-color="#E5550F"/>
<stop offset="1" stop-color="#EDD76A"/>
</linearGradient>
<linearGradient id="paint2_linear_305_2940" x1="148.131" y1="11.4321" x2="157.921" y2="1.64219" gradientUnits="userSpaceOnUse">
<stop stop-color="#E5550F"/>
<stop offset="1" stop-color="#EDD76A"/>
</linearGradient>
<linearGradient id="paint3_linear_305_2940" x1="166.613" y1="14.9963" x2="175.858" y2="5.74945" gradientUnits="userSpaceOnUse">
<stop stop-color="#E5550F"/>
<stop offset="1" stop-color="#EDD76A"/>
</linearGradient>
<linearGradient id="paint4_linear_305_2940" x1="132.518" y1="12.6736" x2="137.118" y2="8.07197" gradientUnits="userSpaceOnUse">
<stop stop-color="#E5550F"/>
<stop offset="1" stop-color="#EDD76A"/>
</linearGradient>
<linearGradient id="paint5_linear_305_2940" x1="121.632" y1="33.7864" x2="131.422" y2="23.9965" gradientUnits="userSpaceOnUse">
<stop stop-color="#E5550F"/>
<stop offset="1" stop-color="#EDD76A"/>
</linearGradient>
<clipPath id="clip0_305_2940">
<rect width="237.163" height="68.3594" fill="white"/>
</clipPath>
</defs>
</svg>
